<svg xmlns="http://www.w3.org/2000/svg" xml:space="preserve" width="1600" height="1066" version="1.1" viewBox="0 0 423.333 282.046"><g display="inline" transform="translate(267.638 89.25) scale(.18185)"><path d="M78.671 407.59c-.972.005-1.941.096-2.897.274L59.873 307.198l15.93-96.91c2.187-13.302-6.823-25.858-20.125-28.045-12.004-1.974-23.629 5.193-27.257 16.805a192.563 192.563 0 0 0-8.751 59.054l.555 66.09 42.39 101.504c1.062 8.873 9.116 15.205 17.99 14.143 8.873-1.069 15.205-9.12 14.142-17.99-.974-8.14-7.876-14.26-16.07-14.26z" fill="#ffb8b8"/><path d="M49.549 175.81c-21.188.035-38.355 17.202-38.39 38.39l7.8 78.8.7 7.06.36.02 27.39 1.36h.01l13.29.66 2.28.11 2.602-9.21 22.34-78.8c-.024-21.193-17.198-38.367-38.391-38.39Z" fill="#e6e6e6"/><path d="m36.925 554-12.6-38.66s-23.1-23.49 6.53-85.85a259.822 259.822 0 0 1 6.02-11.85c2.14-3.8 4.31-7.73 6.76-11.79l2.24.4 2.12.37 7.25 1.28h.01l104.99 18.5s-1.93 8.62-2.97 17.87c-.83 7.59-1.1 15.27.86 18.52 4.24 7.26-1.49 26.88-1.49 26.88s.32 1.9.86 5.26v.01c.53 3.27 1.27 7.91 2.11 13.53.04.38.09.76.15 1.14 1.33 9.1 2.92 20.59 4.34 32.94.44 3.75.86 7.58 1.26 11.45H36.925z" fill="#2f2e41"/><path d="M78.268 124.733c-1.972 3.91-4.24 7.92-5.235 11.898-.172.688-.78 1.215-.952 1.903-.271 1.085 0 2.677 0 3.807 0 .478-.176 2.68 0 2.86.112.116.364-.107.476.004.404.404.512 1.06.952 1.427.982.82 2.143 1.43 3.33 1.904.963.385 1.684-.244 2.38-.476 1.625-.541 3.7-.184 5.235-.952.401-.2.55-.75.952-.951 1.514-.758 3.469-1.938 5.235-2.38 1.673-.418 3.98 0 5.71 0 1.116 0-.224-.112.952.476.669.334 2.398.016 2.856.476.11.112-.112.363 0 .476.148.149 3.543 1.837 3.807 1.903 2.465.616 6.143-.13 8.09-1.428 2.27-1.513 2.855-5.505 2.855-8.09 0-3.248.456-6.701-.952-9.517-1.316-2.634-6.672-5.477-9.517-6.188-1.317-.33-5.75-.01-7.139-.476-.61-.203-1.293-.748-1.903-.952-1-.333-2.745 0-3.807 0-3.47 0-4.897.363-8.09 1.428-.302.1-.728-.224-.952 0-.112.112.11.364 0 .476-.084.084-1.09.614-1.428.952-.251.25-.147.82-.476.95-.75.3-1.586.32-2.38.478z" fill="#ffb8b8" fill-opacity="1"/><path d="M20.803 196.193a22.683 22.683 0 0 1 16.342-14.397 50.92 50.92 0 0 1 16.943-1.852c16.72.66 12.504-36.8 29.06-34.374 0 0 15.583-5.562 27.776 4.63 11.076 9.256 18.712 34.435 21.555 33.003.604-.299 2.055-.267 4.085.002 23.723 3.148 40.795 24.43 39.385 48.32l-1.205 20.422s8.518 12.823-3.843 35.46L155.331 357s38.96 77.167 21 93c-17.962 15.832-88.385-8.855-88.385-8.855s-39.492-12.208-47.82-17.499c-17.594-11.177 4.892-36.661 18.794-35.46a8.102 8.102 0 0 0-2.546-8.101c-3.842-2.454.463-8.009.787-8.518-.37.37-3.287 3.426-5.51-3.01-2.22-6.434 4.63-14.535 4.63-14.535l-19.35-41.664-15.23-32.914-1.85-3.796 3.18-20.48-.295-.614a65.58 65.58 0 0 1-4.223-45.304c1.467-5.56 2.523-10.628 2.3-13.058z" fill="#ff2a2a"/><path d="M310.29 321.054a16.226 16.226 0 0 0-1.557 2.458l-89.33-49.057-66.873-71.928c-9.178-9.872-24.622-10.435-34.495-1.256-8.909 8.283-10.359 21.862-3.4 31.839a192.563 192.563 0 0 0 41.33 43.08l52.597 40.024 106.21 28.624c7.666 4.592 17.603 2.1 22.196-5.566s2.1-17.603-5.565-22.196c-7.03-4.211-16.098-2.503-21.113 3.978z" fill="#ffb8b8"/><path d="m189.374 301.61 26.518-30.934 1.478-1.73-54.318-73.61a37.45 37.45 0 0 0-7.618-4.592l-.007-.007c-19.298-8.772-42.054-.238-50.825 19.06-7.364 16.2-2.626 35.339 11.445 46.233l15.853 9.94 57.237 35.91z" fill="#e6e6e6"/><path d="M141.78 111.91c-13.54 24.758-44.587 33.852-69.345 20.313-24.758-13.54-33.853-44.586-20.313-69.345 13.54-24.758 44.586-33.852 69.344-20.313a51.094 51.094 0 0 1 22.91 25.816c.234.585.444 1.17.655 1.778a51.025 51.025 0 0 1-3.252 41.75z" fill="#ffb6b6"/><path d="M149.124 70.159c-2.199-6.152-1.24-2.948-3.462-9.076 1.45 5.427-.842 8.467-.631 9.076H84.193V34.793c17.824-7.064 35.25-13.075 45.774 0 19.532 0 35.365 15.834 35.366 35.366h-16.21z" fill="#2f2e41"/><path d="M127.558 168.466a28.6 28.6 0 0 0-.21-1.988 68.877 68.877 0 0 0-3.953-14.034 3773.319 3773.319 0 0 0-5.31-14.83 42.457 42.457 0 0 1-1.988 26.946c-10.268-8-3.789-26.29-17.215-26.29-32.278 0-65.492-26.173-65.492-58.475 0-32.278 13.847-56.416 46.125-56.416 32.302-.008 58.499 14.78 59.13 47.06-39.763 9.35-3.579 94.75-11.087 98.02z" fill="#2f2e41"/><circle fill="#2f2e41" cx="37.424" cy="37.424" r="37.424"/></g></svg>