<svg xmlns="http://www.w3.org/2000/svg" xml:space="preserve" width="1600" height="1066" version="1.1" viewBox="0 0 423.333 282.046"><g display="inline" transform="translate(85.27 61.678) scale(.31464)"><path d="M305.713 120.404a9.088 9.088 0 0 0 11.007 8.547l16.81 27.578 7.155-15.183-17.06-23.86a9.138 9.138 0 0 0-17.912 2.918z" fill="#ffb6b6"/><path d="m431.865 199.44-57.932-31.424-18.273-17.144s-7.944-2.126-5.02-4.71c2.923-2.582-5.409-5.073-5.409-5.073l-9.81-9.204-13.938 9.863 4.034 6.253s-.278 10.353 5.393 8.36c5.672-1.99 4.254 6.595 4.254 6.595l33.85 52.472z" fill="#f06"/><circle fill="#6c63ff" cx="268.579" cy="105.524" r="48.862"/><path d="M414.679 566.219h17.365v45.382h-11.766z" fill="#ffb6b6"/><path d="M438.254 631.986h-8.437l-1.506-7.966-3.858 7.966h-22.378a5.03 5.03 0 0 1-2.859-9.17l17.871-12.342v-8.054l18.797 1.122z" fill="#2f2e41"/><path d="M320.577 566.219h17.365v45.382h-11.766z" fill="#ffb6b6"/><path d="M344.152 631.986h-8.437l-1.506-7.966-3.858 7.966h-22.378a5.03 5.03 0 0 1-2.859-9.17l17.871-12.342v-8.054l18.797 1.122z" fill="#2f2e41"/><path d="M360.175 268.381h59.385v67.607h-59.385z" fill="#ffb6b6"/><path d="m361.546 301.727-10.05 11.877-17.359 36.545-43.739 104.07-9.25 22.009 7.47 38.907s1.21 27.41 1.21 31.898c0 9.136 7.64 14.198 7.64 14.198l5.606 29.198 54.36-2.284s-1.896-32.185-13.282-40.303c-11.385-8.118-16.619-50.429-16.619-50.429l-6.186-18.772 60.298-71.478.39 24.986.188 12.093s-8.83 78.656 1.463 93.921.21 13.469.21 13.469l.49 31.488 64.41.457-14.21-90.656s-7.215-5.697-3.355-11.424c3.86-5.726-3.741-12.74-3.741-12.74l3.41-70.773s-3.776-12.224.665-13.813c4.44-1.589.583-12.101.583-12.101l.66-13.699-13.248-42.483z" fill="#1f1c24" fill-opacity="1"/><path d="m420.474 268.38 6.395-19.185 4.568-6.396 1.827-18.272c0-49.335-11.004-41.12-11.004-41.12l-6.354-17.351-29.236-.914-18.729 17.816-15.531 5.481-6.082 31.603 11.106 33.72 2.741 18.273c-5.228 9.652-4.786 5.087-.457 12.334l51.62 14.16c18.272 6.397 18.272-10.049 14.608-14.159-3.664-4.111-5.472-15.988-5.472-15.988z" fill="#f06"/><circle fill="#ffb6b6" cx="397.511" cy="131.907" r="27.102"/><path d="M433.694 168.084a3.33 3.33 0 0 1-1.855 4.87c-3.636 1.206-5.874 4.723-8.487 7.537-2.604 2.805-6.798 5.134-10.123 3.225-3.317-1.9-3.545-6.752-6.322-9.383-2.705-2.558-7.2-2.247-10.38-.301l-.094.058a3.351 3.351 0 0 1-5.127-3.41l3.34-17.771a59.761 59.761 0 0 1-12.508 18.912 13.757 13.757 0 0 1-5.426 3.819c-1.9.603-3.746-1.362-5.592-1.005 4.587-4.011 20.008-29.72 17.25-46.905l-9.73 1.096a8.943 8.943 0 0 0-2.175-4.102 10.51 10.51 0 0 1-.557 4.413c-1.352.155-2.714.301-4.066.457-1.882.21-3.928.392-5.546-.594-2.695-1.645-2.777-5.537-2.01-8.607 2.248-8.926 9.063-16.39 17.405-20.3 8.341-3.901 10.808 4.787 19.597 2.01 17.358-5.482 30.66 3.892 35.347 21.287 3.938 14.59 1.079 30.076-2.941 44.694z" fill="#220b28"/><path d="m255.711 189.409-34.688-29.294a5.865 5.865 0 0 1-.696-8.257l6.385-7.56a5.865 5.865 0 0 1 8.256-.696l34.688 29.294a5.865 5.865 0 0 1 .696 8.257l-6.384 7.56a5.865 5.865 0 0 1-8.257.696z" fill="#3f3d56"/><path d="M222.844 152.468a3.161 3.161 0 0 0 .375 4.45l34.688 29.293a3.16 3.16 0 0 0 4.449-.375l6.384-7.56a3.161 3.161 0 0 0-.375-4.45l-34.688-29.293a3.161 3.161 0 0 0-4.449.375z" fill="#fff"/><path d="M243.208 163.856a1.333 1.333 0 0 1-1.055.557l-5.45.125a1.334 1.334 0 1 1-.061-2.666l3.565-.082-3.511-9.266a1.334 1.334 0 0 1 2.494-.945l4.18 11.028a1.334 1.334 0 0 1-.141 1.218z" fill="#6c63ff"/><path d="M243.907 166.184a9.088 9.088 0 0 1 7.3 11.872l25.586 19.709-15.87 5.461-21.865-19.553a9.138 9.138 0 0 1 4.849-17.489z" fill="#ffb6b6"/><path d="m377.115 175.93-65.51 40.277s-26.412-9.773-21.25-14.297c5.162-4.524-11.27-7.582-11.27-7.582l-18.154-12.213-10.534 12.242s1.92 19.885 5.185 16.442c3.266-3.443 8.148 5.963 8.148 5.963s1.442 10.502 10.739 7.86c9.296-2.644 34.242 25.06 34.242 25.06l80.622-30.07z" fill="#f06"/><path d="M262.727 126.936a4.89 4.89 0 0 1-3.913-1.957l-11.998-15.998a4.892 4.892 0 1 1 7.827-5.87l7.85 10.465 20.16-30.24a4.892 4.892 0 0 1 8.14 5.428l-23.995 35.993a4.894 4.894 0 0 1-3.935 2.177l-.136.002z" fill="#fff"/></g><g display="inline" transform="translate(75.325 60.339) scale(.33676)"><g fill="#fca"><path d="M165.75 329.794c2.051 6.07.582 12.049-3.282 13.353-3.863 1.305-8.656-2.558-10.707-8.63a16.035 16.035 0 0 1-.764-7.535l-8.366-25.83 12.205-3.667 6.951 25.853a16.036 16.036 0 0 1 3.963 6.456z"/><path d="M170.874 183.502s-18.428.802-19.23 10.416c-.8 9.615-23.69 69.584-23.69 69.584l18 55 14-9-8-43 27-41z" fill-opacity="1"/></g><path d="m134.647 575.74 10.978-43.255-14.391-2.157-6.339 43.951z" fill="#ffb6b6"/><path d="M155.885 598.904c-.208 1.652-1.55 2.844-2.996 2.662l-19.413-2.441s-.945-7.92-8.318-12.205l-1.92 10.917-10.014-1.26 3.435-17.51s-1.491-9.786 4.68-13.916c6.171-4.13 1.58-4.025 1.58-4.025l3.564-10.656 14.91 3.682-2.047 17.175 5.202 17.956 10.102 6.676c.9.594 1.385 1.752 1.234 2.945z" fill="#22241c"/><path d="m253.162 577.154 5.494-44.287-14.547-.344-.805 44.398z" fill="#ffb6b6"/><path d="M277.124 597.487c0 1.665-1.182 3.015-2.64 3.015h-19.566s-1.925-7.74-9.776-11.07l-.542 11.07h-10.093l1.223-17.801s-2.7-9.524 2.907-14.393c5.608-4.868 1.066-4.19 1.066-4.19l2.206-11.018 15.252 1.794.112 17.295 7.402 17.167 10.857 5.363c.967.478 1.592 1.565 1.592 2.768z" fill="#22241c"/><path d="m255.953 350.502-15.31-67.147-71.028 1.652-18.995 62.769 3.413 94.908-27.393 96.818h21.75l45.318-95.515 12.247-84.649 33.862 183.611h21.045z" fill="#0b0b28"/><path d="m218.344 160.295-27.255-1.652-7.433 14.867-27.255 14.866 19.822 52.858-16.27 73.268s16.738-15.558 36 4c28.525 28.965 58 15 58 15l-17-77 6-64c.771-5.049 7.83-11.34 3-13l-20.176-8.47-7.433-10.737z" fill="#fc0"/><path d="M212.327 169.691H179.73c.048-2.215-.277-4.414-.948-6.407a22.143 22.143 0 0 1-.987 6.407h-1.48c-2.265-.003-4.1-2.658-4.103-5.934-7.66-8.508-6.655-18.946 0-30.642.001-15.004 8.87-37.494 18.505-28.083.31-.024 5.195-3.153 5.506-3.153 8.477.01 11.392 11.076 13.952 22.766 2.917-1.945 4.927 6.172 6.38 20.458.425 4.169.802 8.863 1.14 13.986.935 4.298-.716 8.879-3.688 10.23a4.071 4.071 0 0 1-1.68.376l.001-.004z" fill="#2f2e41"/><circle fill="#241c1c" cx="205.664" cy="132.57" r="23.954"/><path d="M207.953 170.502a8.569 8.569 0 0 1-9.697 2.941l-10.668-3.752c-.998 0-1.848-.585-1.894-1.343l-.005-.084c-.107-1.58-3.024-1.845-3.702-.35a17.685 17.685 0 0 1-.93 1.777h-1.933v-46.612c0-7.995 8.53-14.476 19.053-14.476 8.984 0 16.747 4.768 18.63 11.442 0 0 13.355 12.446 5.484 19.444-7.872 6.997 3.58 12.692 3.58 12.692 2.274 8.063-4.955 21.168-15.191 23.838-1.204.314-1.45-5.517-2.726-5.517z" fill="#241c1c"/><path d="M235.509 129.013c-.982 1.395-3.549 5.052-11.556 4.49-2.039-.148-9.282-2.14-14.554-2.043-3.493.061-5.644.037-9.946 0-5.085-.049-6.477-.147-7.46-1.224-1.902-2.092-.335-5.812-1.243-6.118-.758-.257-2.723 2.044-3.73 4.895-2.114 5.983 5.47 14.316 6.217 22.025.795 8.308-7.037-7.611-6.217 0 .92 8.565 4.215 7.917 4.178 11.012-.013.465-.15.87-.448 1.224-.261.318-.522.44-4.973 1.224-5.322.942-7.995 1.407-8.703 1.223-1.828-.465-3.68-3.047-4.974-4.894-2.138-3.023-.621.024 0-3.671.597-3.573 2.462-4.038 2.487-7.342.025-4.16-2.922-5.42-4.973-9.789-3.792-8.076-.087-17.424 1.243-20.801.64-1.62 1.798-3.67 3.829-7.056 1.63-2.719 3.795-5.114 6.434-6.909a32.39 32.39 0 0 1 13.517-5.262c2.721-.4 5.496-.19 8.17.442l6.93 1.639a22.91 22.91 0 0 1 8.08 3.673c2.256.007 4.212 1.443 4.986 3.529.081.218.155.345.215.327 12.49-3.843 12.482 7.538 12.345 14.648-.014.728.013 1.371.108 1.895v.036c.25 1.407.311 2.435.038 2.827z" fill="#241c1c"/><g fill="#fca"><path d="M256.43 336.091c.464 6.391 4.138 11.332 8.204 11.036 4.067-.296 6.987-5.716 6.522-12.109a16.035 16.035 0 0 0-2.218-7.24l-2.307-27.053-12.672 1.354 3.62 26.524a16.036 16.036 0 0 0-1.149 7.488z"/><path d="M237.032 178.502s18.428.802 19.23 10.416c.8 9.615 9.614 71.31 9.614 71.31l4.006 61.694-14.422 2.404-17.507-72.912-.921-72.912z" fill-opacity="1"/></g></g></svg>